<svg xmlns="http://www.w3.org/2000/svg" viewBox="0 0 1024 1024"><defs><style>.cls-1{fill:#363531;}.cls-2{fill:#cb5416;}.cls-3{fill:none;stroke:#363531;stroke-miterlimit:10;stroke-width:3px;}</style></defs><g id="regulations"><polygon class="cls-1" points="643.56 545.56 643.56 560.56 559.41 560.56 559.41 699.16 544.41 699.16 544.41 405.96 609.32 405.96 609.32 420.96 559.41 420.96 559.41 545.56 643.56 545.56"/><rect class="cls-2" x="296.98" y="715.91" width="439.95" height="15"/><polygon class="cls-1" points="481.37 406.09 481.37 700.03 466.37 700.03 466.37 560.56 311.98 560.56 311.98 545.56 466.37 545.56 466.37 406.09 481.37 406.09"/><path class="cls-1" d="M297,493.56v168l6.56,23.77h1.89L312,661.55v-168Zm7.59,187.93-5.37-19.94h10.73Z"/><polygon class="cls-1" points="783.81 468.98 756.37 468.98 514.22 311 514.15 310.95 267.96 468.98 240.19 468.98 296.98 432.53 296.98 401.57 311.98 401.57 311.98 422.9 514.15 293.13 514.22 293.09 515.1 293.66 783.81 468.98"/><polygon class="cls-2" points="736.92 438.93 736.92 730.91 691.92 730.91 691.92 483.93 736.92 438.93"/><polygon class="cls-2" points="736.92 438.93 736.92 502.57 509.46 730.03 445.82 730.03 490.82 685.03 691.92 483.93 736.92 438.93"/><polygon class="cls-2" points="736.92 685.03 736.92 730.03 445.82 730.03 490.82 685.03 736.92 685.03"/><line class="cls-3" x1="519.69" y1="656.17" x2="531.89" y2="668.37"/><line class="cls-3" x1="528.63" y1="647.22" x2="540.83" y2="659.42"/><line class="cls-3" x1="537.57" y1="638.27" x2="549.77" y2="650.47"/><line class="cls-3" x1="546.51" y1="629.32" x2="558.71" y2="641.53"/><line class="cls-3" x1="555.45" y1="620.38" x2="567.65" y2="632.58"/><line class="cls-3" x1="564.39" y1="611.43" x2="576.59" y2="623.63"/><line class="cls-3" x1="573.33" y1="602.48" x2="585.53" y2="614.68"/><line class="cls-3" x1="582.27" y1="593.53" x2="594.47" y2="605.73"/><line class="cls-3" x1="591.21" y1="584.58" x2="603.41" y2="596.79"/><line class="cls-3" x1="600.15" y1="575.64" x2="612.35" y2="587.84"/><line class="cls-3" x1="609.09" y1="566.69" x2="621.29" y2="578.89"/><line class="cls-3" x1="618.03" y1="557.74" x2="630.23" y2="569.94"/><line class="cls-3" x1="626.97" y1="548.79" x2="639.17" y2="560.99"/><line class="cls-3" x1="635.91" y1="539.84" x2="648.11" y2="552.05"/><line class="cls-3" x1="644.85" y1="530.9" x2="657.05" y2="543.1"/><line class="cls-3" x1="653.79" y1="521.95" x2="665.99" y2="534.15"/><line class="cls-3" x1="662.73" y1="513" x2="674.93" y2="525.2"/></g></svg>