<svg xmlns="http://www.w3.org/2000/svg" viewBox="0 0 1024 1024"><defs><style>.cls-1{fill:#cb5416;}.cls-2{fill:#363531;}</style></defs><g id="enforcement_notice" data-name="enforcement notice"><rect class="cls-1" x="296.99" y="715.91" width="432.45" height="15"/><polygon class="cls-1" points="296.99 489.28 296.99 489.45 296.85 489.37 296.99 489.28"/><polygon class="cls-1" points="507.25 610.66 507.17 610.79 507.09 610.75 507.25 610.66"/><polygon class="cls-1" points="507.09 610.75 507.02 610.79 506.95 610.66 507.09 610.75"/><rect class="cls-1" x="428.37" y="376.04" width="160.36" height="10"/><rect class="cls-1" x="428.37" y="411.35" width="160.36" height="10"/><rect class="cls-1" x="428.37" y="446.72" width="160.36" height="10"/><rect class="cls-1" x="428.37" y="484.37" width="160.36" height="10"/><rect class="cls-1" x="428.37" y="523.32" width="160.36" height="10"/><rect class="cls-1" x="457.67" y="564.92" width="101.75" height="10"/><rect class="cls-2" x="549.62" y="684.16" width="179.82" height="15"/><polygon class="cls-2" points="729.43 545.56 729.43 560.56 564.02 560.56 590 545.56 729.43 545.56"/><polygon class="cls-2" points="544.42 571.88 559.42 563.21 559.42 699.16 544.42 699.16 544.42 571.88"/><polygon class="cls-2" points="481.38 578.58 481.38 700.03 466.38 700.03 466.38 569.92 481.38 578.58"/><polygon class="cls-2" points="450.17 560.56 311.99 560.56 311.99 545.56 424.19 545.56 450.17 560.56"/><rect class="cls-2" x="296.99" y="493.56" width="15" height="205.6"/><polygon class="cls-1" points="712.17 421.35 712.17 492.35 708.05 494.73 507.25 610.66 507.09 610.75 506.95 610.66 306.13 494.73 296.99 489.45 296.99 436.3 311.99 436.3 311.99 480.78 507.09 593.43 697.17 483.68 697.17 421.35 712.17 421.35"/><polygon class="cls-2" points="404.18 363.72 404.18 381.54 389.18 391.17 267.96 468.98 240.19 468.98 296.99 432.52 296.99 401.58 311.99 401.58 311.99 422.89 389.18 373.35 404.18 363.72"/><polygon class="cls-2" points="571.21 330.27 543.76 330.27 520.77 315.27 514.22 311 514.15 310.95 507.42 315.27 484.05 330.27 456.29 330.27 479.66 315.27 514.15 293.13 514.22 293.09 515.1 293.66 548.22 315.27 571.21 330.27"/><polygon class="cls-2" points="783.81 468.98 756.37 468.98 625.53 383.62 610.53 373.83 610.53 355.92 625.53 365.71 783.81 468.98"/><polygon class="cls-1" points="625.53 315.27 625.53 533.32 610.53 533.32 610.53 330.27 404.18 330.27 404.18 533.32 389.18 533.32 389.18 315.27 625.53 315.27"/></g></svg>