<svg xmlns="http://www.w3.org/2000/svg" viewBox="0 0 800.59 557.71"><defs><style>.cls-1{fill:#cb5302;}.cls-2{fill:#191919;}</style></defs><g id="Layer_2" data-name="Layer 2"><g id="Layer_9" data-name="Layer 9"><path class="cls-1" d="M388.43,493.35l10.9-10.16c-3.25-2.55-5.35-5.48-5-9.47a9.17,9.17,0,0,1,3.27-6.28,10.7,10.7,0,0,1,13.86-.13,9.17,9.17,0,0,1,3.41,8.24c-.3,3.28-2.4,5.59-4.82,7.57l6.43,6.15,3.5-3.76,4.58,4.32-4.11,3.39,7.95,7.2-4.53,4.34-7.38-7.18c-.61.5-1,.79-1.34,1.11q-4.95,4.63-9.87,9.29c-.48.46-.81.68-1.42.1q-7.47-7.08-15-14.11A5.8,5.8,0,0,1,388.43,493.35Zm22.92.17-6.82-6.63-6.94,6.51,7,6.69Zm-6.77-23.19a4.23,4.23,0,1,0,4.57,4.19A4.33,4.33,0,0,0,404.58,470.33Z"/><path class="cls-2" d="M196.73,501.65h-11v-21H165v21H154V453H165v19.06H185.7V453h11Z"/><path class="cls-2" d="M240,501.65H209.91V453H240v8.45H221v10.68h17.67v8.45H221v12.54h19Z"/><path class="cls-2" d="M261.93,483v18.67H250.86V453h15.21q10.64,0,15.74,3.61t5.11,11a12.33,12.33,0,0,1-2.54,7.64,16.76,16.76,0,0,1-7.17,5.24q11.78,16.4,15.35,21.19H280.28L267.82,483Zm0-8.38h3.57c3.49,0,6.08-.54,7.74-1.63a5.66,5.66,0,0,0,2.5-5.12,5.23,5.23,0,0,0-2.55-4.93q-2.55-1.46-7.91-1.46h-3.35Z"/><path class="cls-2" d="M319.26,501.65H308.2V461.59H294V453h39.42v8.58H319.26Z"/><path class="cls-2" d="M372.28,488.14a12.26,12.26,0,0,1-5.09,10.38q-5.08,3.8-14.15,3.79a35.16,35.16,0,0,1-14.78-2.93V489.8a63.16,63.16,0,0,0,8.94,3.1,28.21,28.21,0,0,0,6.69.9,10.11,10.11,0,0,0,5.59-1.3,4.34,4.34,0,0,0,1.95-3.86,4.11,4.11,0,0,0-.86-2.55,9.4,9.4,0,0,0-2.52-2.14,65.32,65.32,0,0,0-6.76-3.3,32.31,32.31,0,0,1-7.18-4,15.39,15.39,0,0,1-3.82-4.49A13.29,13.29,0,0,1,343.56,456q4.69-3.69,13-3.69a32.67,32.67,0,0,1,7.76.9,56,56,0,0,1,7.73,2.53l-3.57,8a53.63,53.63,0,0,0-6.91-2.23,23.29,23.29,0,0,0-5.37-.64,7.46,7.46,0,0,0-4.82,1.37,4.36,4.36,0,0,0-1.68,3.56,4.21,4.21,0,0,0,.68,2.38,7.23,7.23,0,0,0,2.16,2,68.64,68.64,0,0,0,7,3.41q7.32,3.26,10,6.54A12.21,12.21,0,0,1,372.28,488.14Z"/><path class="cls-2" d="M472.14,501.57H440.83V452.94h31.31v8.45H452.36v10.68h18.4v8.45h-18.4v12.54h19.78Z"/><path class="cls-2" d="M515.57,488.07a12.1,12.1,0,0,1-5.3,10.38q-5.29,3.78-14.74,3.79a38.18,38.18,0,0,1-15.4-2.93v-9.58a67.72,67.72,0,0,0,9.32,3.09,30.5,30.5,0,0,0,7,.9,10.77,10.77,0,0,0,5.82-1.3,4.28,4.28,0,0,0,2-3.85,3.93,3.93,0,0,0-.9-2.55,9.52,9.52,0,0,0-2.62-2.14,69.81,69.81,0,0,0-7-3.3,34.59,34.59,0,0,1-7.48-4,15.66,15.66,0,0,1-4-4.49,11.75,11.75,0,0,1-1.48-6,12,12,0,0,1,4.89-10.15q4.88-3.69,13.51-3.69a35.44,35.44,0,0,1,8.09.9,60,60,0,0,1,8,2.53l-3.72,8a59.79,59.79,0,0,0-7.19-2.23,25.92,25.92,0,0,0-5.6-.63,8,8,0,0,0-5,1.37,4.27,4.27,0,0,0-1.75,3.55,4.06,4.06,0,0,0,.71,2.38,7.47,7.47,0,0,0,2.25,2,74.8,74.8,0,0,0,7.31,3.41q7.62,3.25,10.44,6.53A11.88,11.88,0,0,1,515.57,488.07Z"/><path class="cls-2" d="M557.51,488.07a12.07,12.07,0,0,1-5.3,10.38q-5.3,3.78-14.74,3.79a38.1,38.1,0,0,1-15.39-2.93v-9.58a67.21,67.21,0,0,0,9.31,3.09,30.57,30.57,0,0,0,7,.9,10.77,10.77,0,0,0,5.82-1.3,4.28,4.28,0,0,0,2-3.85,4,4,0,0,0-.89-2.55,9.68,9.68,0,0,0-2.62-2.14,71.49,71.49,0,0,0-7.05-3.3,34.72,34.72,0,0,1-7.47-4,15.51,15.51,0,0,1-4-4.49,11.65,11.65,0,0,1-1.49-6,12,12,0,0,1,4.89-10.15q4.89-3.69,13.51-3.69a35.38,35.38,0,0,1,8.09.9,59.57,59.57,0,0,1,8,2.53l-3.72,8a59.24,59.24,0,0,0-7.19-2.23,25.85,25.85,0,0,0-5.6-.63,8,8,0,0,0-5,1.37,4.3,4.3,0,0,0-1.75,3.55,4.06,4.06,0,0,0,.71,2.38,7.47,7.47,0,0,0,2.25,2,76,76,0,0,0,7.31,3.41q7.62,3.25,10.45,6.53A11.92,11.92,0,0,1,557.51,488.07Z"/><path class="cls-2" d="M598.67,501.57h-31.3V452.94h31.3v8.45H578.89v10.68H597.3v8.45H578.89v12.54h19.78Z"/><path class="cls-2" d="M654,501.57H640.8l-12.64-18.39-12.64,18.39H603.17l18-25.08-16.89-23.55H617l11.71,17.5,11.49-17.5h12.42L635.6,477.06Z"/><path class="cls-2" d="M289.58,557.28V525.87h7v27h18v4.4Z"/><path class="cls-2" d="M348.3,557.28l-4.25-8.72H327.78l-4.16,8.72h-7.34l15.92-31.53h7.57l15.93,31.53Zm-6.08-13.14-4-8.56c-.29-.57-.69-1.47-1.21-2.7s-.87-2.14-1.06-2.71a38.63,38.63,0,0,1-2.3,5.78l-3.84,8.19Z"/><path class="cls-2" d="M396.78,557.28h-8.53l-20.93-25h-.24l.15,1.4a73.16,73.16,0,0,1,.41,7.31v16.32h-6.32V525.87h8.44l20.88,24.9h.17c0-.32-.12-1.52-.23-3.59s-.18-3.69-.18-4.85V525.87h6.38Z"/><path class="cls-2" d="M443.48,557.28H435l-20.94-25h-.23l.15,1.4a73,73,0,0,1,.4,7.31v16.32H408V525.87h8.44l20.87,24.9h.18c0-.32-.12-1.52-.23-3.59s-.18-3.69-.18-4.85V525.87h6.38Z"/><path class="cls-2" d="M454.71,557.28V525.87h7v31.41Z"/><path class="cls-2" d="M508.37,557.28h-8.53l-20.93-25h-.24l.15,1.4a73.16,73.16,0,0,1,.41,7.31v16.32h-6.32V525.87h8.44l20.88,24.9h.17c0-.32-.11-1.52-.23-3.59s-.18-3.69-.18-4.85V525.87h6.38Z"/><path class="cls-2" d="M277.11,528.28q-4-2.4-11.95-2.41H252.9V541.5H155.28v8l97.62-3.72v11.5h7V545.53h4.42q8.07,0,12.43-2.62a8.32,8.32,0,0,0,4.37-7.54A7.78,7.78,0,0,0,277.11,528.28Zm-5.7,11.56c-1.66.92-4.28,1.37-7.86,1.37h-3.69v-11h4.83c3.16,0,5.49.45,7,1.33a4.4,4.4,0,0,1,2.24,4A4.58,4.58,0,0,1,271.41,539.84Z"/><path class="cls-2" d="M650.28,539.5v9l-97.6-2.57V556a60.49,60.49,0,0,1-7.38,1.31,72.58,72.58,0,0,1-7.64.38q-9.67,0-14.91-4.22t-5.24-11.91a13.85,13.85,0,0,1,5.91-11.87q5.91-4.29,16.28-4.29a41.6,41.6,0,0,1,12.63,1.89l-2.44,4.28a32.18,32.18,0,0,0-10.37-1.76q-6.81,0-10.77,3.16a10.43,10.43,0,0,0-4,8.63q0,5.76,3.57,8.76c2.37,2,5.8,3,10.26,3a44.68,44.68,0,0,0,7.22-.62v-7l-9.56-.25v-6Z"/><polygon points="800.59 250 743.79 250 400.3 36.39 201.78 159.85 151.78 190.94 56.81 250 0 250 151.78 155.09 201.78 123.82 399.78 0 800.59 250"/><polygon class="cls-1" points="384.78 119 384.78 419 334.78 419 334.78 296 201.78 296 201.78 419 151.78 419 151.78 221.72 201.78 190.62 201.78 246 334.78 246 334.78 119 384.78 119"/><polygon points="201.78 100 201.78 123.82 151.78 155.09 151.78 100 201.78 100"/><polygon class="cls-1" points="464.78 296 464.78 369 652.28 369 652.28 419 414.78 419 414.78 119 483.65 119 564.05 169 464.78 169 464.78 246 652.28 246 652.28 296 464.78 296"/></g></g></svg>