<svg xmlns="http://www.w3.org/2000/svg" viewBox="0 0 1024 1024"><defs><style>.cls-1{fill:#cb5416;}.cls-2{fill:#363531;}</style></defs><g id="process"><rect class="cls-1" x="544.41" y="408.46" width="64.91" height="10"/><rect class="cls-1" x="547.31" y="548.06" width="182.12" height="10"/><rect class="cls-1" x="547.31" y="478.26" width="182.12" height="10"/><rect class="cls-1" x="547.31" y="617.36" width="182.12" height="10"/><rect class="cls-1" x="549.61" y="686.66" width="179.82" height="10"/><rect class="cls-1" x="296.98" y="715.91" width="432.45" height="15"/><path class="cls-1" d="M469.83,407.71c.82,1,1.58,2.12,2.32,3.21s1.44,2.18,2.12,3.3c1.39,2.21,2.66,4.48,3.9,6.77l-3.41.34a33.41,33.41,0,0,1,1.12-3.81c.43-1.22.93-2.41,1.44-3.59a56.49,56.49,0,0,1,3.65-6.77,25.87,25.87,0,0,1,2.34-3.2,20.29,20.29,0,0,1,2.91-2.73,17.67,17.67,0,0,1,3.36-2.07,12.58,12.58,0,0,1,3.71-1.15,25.91,25.91,0,0,0-5.37,5,31.56,31.56,0,0,0-2.06,2.88c-.62,1-1.16,2-1.71,3.1-1.1,2.19-2.19,4.37-3.18,6.59a71,71,0,0,0-2.68,6.64L476.7,427l-1.82-4.4c-1-2.4-1.95-4.82-2.79-7.29-.44-1.23-.84-2.48-1.22-3.73S470.13,409,469.83,407.71Z"/><path class="cls-1" d="M473.85,476.11c.82,1.05,1.58,2.12,2.31,3.21s1.45,2.19,2.12,3.3c1.39,2.22,2.67,4.48,3.9,6.77l-3.41.34a33.4,33.4,0,0,1,1.13-3.81c.42-1.22.92-2.41,1.44-3.59a54.91,54.91,0,0,1,3.64-6.76,26.34,26.34,0,0,1,2.35-3.21,20.25,20.25,0,0,1,2.9-2.73,18.19,18.19,0,0,1,3.36-2.07,12.58,12.58,0,0,1,3.71-1.15,26.18,26.18,0,0,0-5.37,5c-.75.92-1.41,1.9-2.06,2.88s-1.16,2-1.71,3.1c-1.1,2.19-2.19,4.37-3.18,6.59s-2,4.51-2.67,6.64l-1.59,4.75L478.89,491c-1-2.4-1.95-4.82-2.79-7.29-.44-1.23-.84-2.47-1.22-3.73S474.14,477.41,473.85,476.11Z"/><path class="cls-1" d="M473.85,544.51c.82,1,1.58,2.13,2.31,3.21s1.45,2.19,2.12,3.31c1.39,2.21,2.67,4.48,3.9,6.76l-3.41.35a33.58,33.58,0,0,1,1.13-3.82c.42-1.22.92-2.41,1.44-3.59A54.91,54.91,0,0,1,485,544a26.24,26.24,0,0,1,2.35-3.2,19.71,19.71,0,0,1,2.9-2.73,17.71,17.71,0,0,1,3.36-2.08,12.27,12.27,0,0,1,3.71-1.14,25.87,25.87,0,0,0-5.37,5c-.75.92-1.41,1.91-2.06,2.88s-1.16,2-1.71,3.1c-1.1,2.19-2.19,4.37-3.18,6.59s-2,4.51-2.67,6.64l-1.59,4.75-1.83-4.4c-1-2.4-1.95-4.82-2.79-7.3-.44-1.23-.84-2.47-1.22-3.73S474.14,545.81,473.85,544.51Z"/><path class="cls-1" d="M476.12,612.92c.82,1,1.58,2.12,2.31,3.21s1.45,2.18,2.12,3.3c1.39,2.21,2.67,4.48,3.9,6.76l-3.41.35a33.4,33.4,0,0,1,1.13-3.81c.42-1.23.92-2.42,1.44-3.59a55,55,0,0,1,3.64-6.77,27,27,0,0,1,2.35-3.2,20.22,20.22,0,0,1,2.9-2.73,17.67,17.67,0,0,1,3.36-2.07,12.38,12.38,0,0,1,3.71-1.15,25.91,25.91,0,0,0-5.37,5,33.51,33.51,0,0,0-2.05,2.88c-.62,1-1.17,2-1.71,3.1-1.11,2.18-2.2,4.37-3.18,6.59a70.8,70.8,0,0,0-2.68,6.63L483,632.16l-1.82-4.4c-1-2.4-1.95-4.82-2.79-7.3-.44-1.22-.85-2.47-1.23-3.72S476.42,614.21,476.12,612.92Z"/><path class="cls-1" d="M478.46,681.32c.82,1,1.58,2.12,2.31,3.21s1.45,2.19,2.13,3.3c1.38,2.21,2.66,4.48,3.9,6.77l-3.42.34a33.4,33.4,0,0,1,1.13-3.81c.43-1.22.93-2.41,1.44-3.59a55.54,55.54,0,0,1,3.64-6.76,26.34,26.34,0,0,1,2.35-3.21,19.78,19.78,0,0,1,2.91-2.73,17.59,17.59,0,0,1,3.35-2.07,12.64,12.64,0,0,1,3.72-1.15,25.93,25.93,0,0,0-5.37,5,31.56,31.56,0,0,0-2.06,2.88c-.62,1-1.16,2-1.71,3.1-1.11,2.19-2.2,4.37-3.18,6.59a71,71,0,0,0-2.68,6.64l-1.59,4.75-1.82-4.41c-1-2.4-1.95-4.82-2.79-7.29-.44-1.23-.85-2.48-1.23-3.73S478.76,682.61,478.46,681.32Z"/><path class="cls-2" d="M296.75,494.76v168l6.56,23.77h1.89l6.55-23.77v-168Zm7.59,187.94-5.37-20H309.7Z"/><rect class="cls-2" x="319.72" y="545.56" width="154.15" height="15"/><polygon class="cls-2" points="783.81 468.98 756.37 468.98 514.22 311 514.15 310.95 267.96 468.98 240.19 468.98 296.98 432.53 296.98 401.58 311.98 401.58 311.98 422.9 514.15 293.13 514.22 293.09 515.1 293.66 783.81 468.98"/></g></svg>