<svg xmlns="http://www.w3.org/2000/svg" viewBox="0 0 1024 1024"><defs><style>.cls-1{fill:#cb5416;}.cls-2{fill:#363531;}</style></defs><g id="appeal"><rect class="cls-1" x="296.98" y="715.91" width="432.45" height="15"/><polygon class="cls-1" points="714.26 656.7 687.3 675.68 562.78 498.82 517.51 530.69 468.83 461.55 586.31 378.83 634.99 447.97 589.73 479.84 714.26 656.7"/><path class="cls-2" d="M296.75,494.76v168l6.56,23.76h1.89l6.55-23.76v-168Zm7.59,187.94L299,662.76H309.7Z"/><polygon class="cls-2" points="729.43 684.16 729.43 699.16 544.41 699.16 544.41 588.23 559.41 588.23 559.41 684.16 729.43 684.16"/><polygon class="cls-2" points="481.37 508.56 481.37 700.03 466.37 700.03 466.37 560.56 311.75 560.56 311.75 545.56 466.37 545.56 466.37 508.56 481.37 508.56"/><polygon class="cls-2" points="783.81 468.98 756.37 468.98 514.22 311 514.15 310.95 267.96 468.98 240.19 468.98 296.98 432.53 296.98 401.58 311.98 401.58 311.98 422.9 514.15 293.13 514.22 293.09 515.1 293.66 783.81 468.98"/></g></svg>