<svg xmlns="http://www.w3.org/2000/svg" viewBox="0 0 1024 1024"><defs><style>.cls-1{fill:#cb5416;}.cls-2{fill:#363531;}</style></defs><g id="drawings"><polygon class="cls-1" points="481.37 406.09 481.37 700.03 466.37 700.03 466.37 560.56 360.05 560.56 360.05 545.56 466.37 545.56 466.37 406.09 481.37 406.09"/><polygon class="cls-1" points="609.32 405.96 609.32 420.96 559.41 420.96 559.41 494.76 544.41 494.76 544.41 405.96 609.32 405.96"/><polygon class="cls-1" points="729.43 646.17 729.43 730.91 296.98 730.91 296.98 715.91 714.43 715.91 714.43 699.16 544.41 699.16 544.41 611.36 559.41 611.36 559.41 684.16 714.43 684.16 714.43 646.17 729.43 646.17"/><polygon class="cls-1" points="729.43 494.76 729.43 601.15 714.43 601.15 714.43 560.56 547.31 560.56 547.31 545.56 714.43 545.56 714.43 494.76 729.43 494.76"/><path class="cls-2" d="M296.75,494.76v168l6.56,23.77h1.89l6.55-23.77v-168Zm7.59,187.94-5.37-20H309.7Z"/><polygon class="cls-2" points="783.81 468.98 756.37 468.98 514.22 311 514.15 310.95 267.96 468.98 240.19 468.98 296.98 432.53 296.98 401.58 311.98 401.58 311.98 422.9 514.15 293.13 514.22 293.09 515.1 293.66 783.81 468.98"/></g></svg>