<svg xmlns="http://www.w3.org/2000/svg" viewBox="0 0 1024 1024"><defs><style>.cls-1{fill:#363531;}.cls-2{fill:#cb5416;}</style></defs><g id="extention"><polygon class="cls-1" points="418.75 406.08 418.75 700.03 403.75 700.03 403.75 560.57 249.35 560.57 249.35 699.15 234.35 699.15 234.35 493.56 249.35 493.56 249.35 545.57 403.75 545.57 403.75 406.08 418.75 406.08"/><polygon class="cls-1" points="496.79 560.57 496.79 684.15 666.79 684.15 666.79 699.15 481.79 699.15 481.79 405.96 546.7 405.96 546.7 420.96 496.79 420.96 496.79 545.57 666.79 545.57 666.79 560.57 496.79 560.57"/><polygon class="cls-2" points="846.45 493.56 846.45 730.9 234.35 730.9 234.35 715.9 831.45 715.9 831.45 508.56 666.79 508.56 666.79 493.56 846.45 493.56"/><polygon class="cls-1" points="721.17 468.99 693.74 468.99 451.58 311 451.51 310.95 205.32 468.99 177.56 468.99 234.35 432.52 234.35 401.57 249.35 401.57 249.35 422.89 451.51 293.13 451.58 293.1 452.46 293.67 721.17 468.99"/></g></svg>